<svg viewBox="0 0 263 30">
  <path fill="#f9d648" d="M0 0h35c2.2 0 4 1.8 4 4 0 .3 0 .6-.1.9L37.8 10H10C4.5 10 0 5.5 0 0z" />
  <path fill="#feb03c" d="M2.2 0H0c0 5.5 4.5 10 10 10h27.8l.4-2H12C7.2 8 3.1 4.6 2.2 0z" />
  <path fill="#f9d648" d="M9.8 10h28l-2.4 10H19.8c-5.5 0-10-4.5-10-10z" />
  <path fill="#feb03c" d="M12 10H9.8c0 5.5 4.5 10 10 10h15.6l.5-2H21.8c-4.9 0-8.9-3.4-9.8-8z" />
  <path fill="#f9d648" d="M19.4 20h16l-1.7 7c-.4 1.8-2 3-3.9 3h-3.6c-3.7 0-6.8-3-6.8-6.8V20z" />
  <path fill="#feb03c" d="M21.4 20h-2v3.2c0 3.7 3 6.8 6.8 6.8h3.6c1.6 0 3-.9 3.6-2.4-.5.2-1.1.4-1.6.4h-3.6c-3.7 0-6.8-3-6.8-6.8V20z" />
  <path fill="#ffffff" d="M59.5 19H48.4l-1.9 11H38l5.6-26.8c.4-1.9 2-3.2 3.9-3.2h17.7L64 6.5H50.6l-1 6h11.1L59.5 19zm48.8 11H87.4l4.7-26.7c.3-1.9 2-3.3 3.9-3.3h17.6l-1.2 6.5H99l-1 5.6h11.1l-1.2 6.5H96.8l-.8 4.9h13.4l-1.1 6.5zm24.2 0h-20.9l4.7-26.7c.3-1.9 2-3.3 3.9-3.3h17.6l-1.2 6.5h-13.4l-1 5.6h11.1l-1.2 6.5H121l-.8 4.9h13.4l-1.1 6.5zm48.4-30l4.5 14.4 8.4-12.6c.7-1.1 2-1.8 3.3-1.8h5.7l-5.3 30H190l3-16.9-6.4 10.1h-5.5l-2.8-10.1-3 16.9h-7.5l4.7-26.7c.3-1.9 2-3.3 3.9-3.3h4.5zm37.4 30l.2-6.5h-7l-2 6.5h-8l9.8-27.3c.6-1.6 2.1-2.7 3.8-2.7H226l.2 30h-7.9zm-1.7-22.7l-3.3 10.6h5.5l.5-10.6h-2.7zm42-7.3l-5.2 30h-7.5l-5.2-16.4-3 16.4h-7.5l4.7-26.7c.3-1.9 2-3.3 3.9-3.3h4.4l5.2 15.3 2.1-12c.3-1.9 2-3.3 3.9-3.3h4.2zm-90.8 6.5h-10.2L153.4 30h-7.5L150 6.5h-10.3l1.2-6.5H169l-1.2 6.5zm-95 12.1l-.8 4.9h13.4L84.3 30H63.4l4.7-26.7c.3-1.9 2-3.3 3.9-3.3h4.1l-3.3 18.6zm1.2-6.5" />
</svg>
