<svg viewBox="0 0 39 30">
  <path fill="#f9d648" d="M0 0h35c2.2 0 4 1.8 4 4 0 .3 0 .6-.1.9L37.8 10H10C4.5 10 0 5.5 0 0z"/>
  <path fill="#feb03c" d="M2.2 0H0c0 5.5 4.5 10 10 10h27.8l.4-2H12C7.2 8 3.1 4.6 2.2 0z"/>
  <path fill="#f9d648" d="M9.8 10h28l-2.4 10H19.8c-5.5 0-10-4.5-10-10z"/>
  <path fill="#feb03c" d="M12 10H9.8c0 5.5 4.5 10 10 10h15.6l.5-2H21.8c-4.9 0-8.9-3.4-9.8-8z"/>
  <path fill="#f9d648" d="M19.4 20h16l-1.7 7c-.4 1.8-2 3-3.9 3h-3.6c-3.7 0-6.8-3-6.8-6.8V20z"/>
  <path fill="#feb03c" d="M21.4 20h-2v3.2c0 3.7 3 6.8 6.8 6.8h3.6c1.6 0 3-.9 3.6-2.4-.5.2-1.1.4-1.6.4h-3.6c-3.7 0-6.8-3-6.8-6.8V20z"/>
</svg>
