<svg viewBox="0 0 100 90">
  <path fill="#e54239" d="M61.4 46.2c-.4-.5-1-.8-1.8-.8s-1.4.3-1.8.8c-.4.5-.6 1.3-.7 2.2v3.4c0 1 .2 1.7.7 2.2.4.5 1 .8 1.8.8s1.4-.3 1.8-.8c.4-.5.6-1.3.7-2.2v-3.4c0-.9-.3-1.7-.7-2.2z"/>
  <path fill="#e54239" d="M64 38.1H36c-6.6 0-12 5.4-12 12s5.4 12 12 12h28c6.6 0 12-5.4 12-12s-5.4-12-12-12zM39.4 56.5c0 .1 0 .2-.1.3-.1.1-.2.1-.3.1h-1.8c-.1 0-.2 0-.3-.1-.1-.1-.1-.2-.1-.3v-10l-3 2.2c-.1.1-.2.1-.3.1-.2 0-.3-.1-.4-.2l-.9-1.1c-.2 0-.2-.1-.2-.2 0-.2.1-.3.2-.4l4.4-3.4c.1-.1.3-.1.5-.1h1.8c.1 0 .2 0 .3.1.1.1.1.2.1.3v12.7zm12.7 0c0 .1 0 .3-.1.3-.1.1-.2.1-.4.1h-9.5c-.1 0-.2 0-.3-.1-.1-.1-.1-.2-.1-.3v-1c0-.4.2-.7.5-.9l3.1-3c.9-.7 1.7-1.3 2.2-1.8.5-.5.9-.9 1.1-1.3.3-.4.4-.8.4-1.1 0-.6-.2-1.1-.5-1.4-.3-.3-.8-.5-1.5-.5s-1.2.2-1.6.6c-.4.4-.6.9-.7 1.5 0 .1-.1.3-.2.3-.1.1-.2.1-.4.1h-1.8c-.1 0-.2 0-.3-.1-.1-.1-.1-.2-.1-.3 0-.8.2-1.5.6-2.1.4-.7 1-1.2 1.7-1.6.8-.4 1.6-.6 2.7-.6s2 .2 2.7.5c.7.4 1.3.8 1.7 1.5.4.6.6 1.3.6 2.1 0 .9-.2 1.7-.7 2.4-.5.7-1.3 1.5-2.3 2.3L46 54.6h5.6c.3 0 .5.2.5.4v1.5zM65 51.9c-.1 1.6-.5 2.8-1.4 3.8-.9 1-2.2 1.4-4 1.4-1.8 0-3.1-.5-4-1.4-.9-1-1.3-2.2-1.4-3.8v-3.6c.1-1.5.5-2.8 1.4-3.7.9-1 2.2-1.4 3.9-1.4 1.7 0 3.1.5 3.9 1.4.9 1 1.4 2.2 1.4 3.7v1.8c.2.5.2 1.1.2 1.8z"/>
  <path fill="#3b3e47" d="M78.9 24.4l1.2-1.2c1.5.9 3.6.7 4.9-.7 1.5-1.5 1.5-4.1 0-5.6l-4.2-4.2c-1.5-1.6-4.1-1.6-5.7 0-1.3 1.3-1.6 3.3-.6 4.9L73 19c-3.9-2.9-8.4-5.1-13.3-6.3v-5c1.3-.7 2.2-2 2.2-3.6 0-2.2-1.8-4-4-4H42c-2.2 0-4 1.8-4 4 0 1.6.9 2.9 2.2 3.6v4.9c-4.9 1.3-9.3 3.4-13.3 6.3l-1.5-1.5c.4-.6.6-1.3.6-2.1 0-1.1-.4-2.1-1.2-2.8-.8-.7-1.8-1.2-2.8-1.1-1.1 0-2.1.4-2.8 1.2L15 16.9c-1.5 1.5-1.5 4.1 0 5.6.7.8 1.7 1.2 2.8 1.2.8 0 1.4-.2 2-.5l1.2 1.2c-6.1 6.9-9.8 15.9-9.8 25.8C11.2 71.6 28.6 89 50 89s38.8-17.4 38.8-38.8c0-10-3.8-19-9.9-25.8zm-2.7-10.8c.5-.5 1.1-.7 1.8-.7.6 0 1.3.2 1.8.7l4.2 4.2c.9 1 .9 2.5 0 3.5-1 1-2.6 1-3.5 0L76.2 17c-1-.8-1-2.4 0-3.4zM75.1 19l3.5 3.5-.1.1-3.7-3.4.3-.2zM39.5 4.1c0-1.4 1.1-2.5 2.5-2.5h16c1.4 0 2.5 1.1 2.5 2.5 0 1-.6 1.8-1.4 2.2H40.9c-.8-.3-1.4-1.2-1.4-2.2zm2.3 4h16.4v4.2c-2.7-.6-5.4-.9-8.2-.9-2.8 0-5.6.3-8.2.9V8.1zM24.9 19l.2.2-3.7 3.4-.1-.1 3.6-3.5zm-5.3 2.4c-.5.5-1.1.7-1.8.7s-1.3-.3-1.8-.7c-.9-1-.9-2.5 0-3.5l4.2-4.2c.5-.5 1.1-.7 1.8-.7s1.3.3 1.8.7c1 1 1 2.6 0 3.6l-4.2 4.1zm30.4 66c-20.5 0-37.2-16.7-37.2-37.2C12.8 29.7 29.5 13 50 13c20.5 0 37.2 16.7 37.2 37.2 0 20.5-16.7 37.2-37.2 37.2z"/>
  <path fill="#3b3e47" d="M50 15.1c-19.3 0-35 15.7-35 35s15.7 35 35 35 35-15.7 35-35-15.7-35-35-35zm0 68.5c-18.5 0-33.5-15-33.5-33.5s15-33.5 33.5-33.5 33.5 15 33.5 33.5-15 33.5-33.5 33.5z"/>
  <path fill="#3b3e47" d="M50 20.1c-16.5 0-30 13.5-30 30s13.5 30 30 30 30-13.5 30-30-13.5-30-30-30zm0 58.5c-15.7 0-28.5-12.8-28.5-28.5S34.3 21.6 50 21.6s28.5 12.8 28.5 28.5S65.7 78.6 50 78.6z"/>
</svg>
