<svg viewBox="0 0 100 90">
  <path fill="#3b3e47" d="M28.3 55.3c-.8 0-1.6-.3-2.1-.9l-7.5-7.5H13c-2.8 0-5-2.2-5-5v-36c0-2.8 2.2-5 5-5h67c2.8 0 5 2.2 5 5v36c0 2.8-2.2 5-5 5H37.9l-7.5 7.5c-.5.6-1.3.9-2.1.9zM13 2.4c-1.9 0-3.5 1.6-3.5 3.5v36c0 1.9 1.6 3.5 3.5 3.5h6.3l7.9 7.9c.6.6 1.6.6 2.1 0l7.9-7.9H80c1.9 0 3.5-1.6 3.5-3.5v-36c0-1.9-1.6-3.5-3.5-3.5H13z" />
  <path fill="#e54239" d="M27.2 35.5c-.1-.1-.2-.3-.2-.5v-1.9c-1.3-.2-2.5-.5-3.4-1-.9-.5-1.6-1.1-2.1-1.9-.5-.7-.7-1.5-.8-2.4 0-.2.1-.3.2-.4.1-.1.3-.2.4-.2h3.5c.2 0 .4 0 .5.1.1.1.3.2.4.4.6 1 1.6 1.5 3 1.5 1 0 1.7-.1 2.2-.4.5-.3.8-.7.8-1.2 0-.4-.1-.7-.4-.9-.3-.2-.7-.5-1.3-.6-.6-.2-1.4-.4-2.5-.6-2.2-.4-3.8-1.1-4.8-1.9-1.1-.9-1.6-2.1-1.6-3.7 0-1.4.5-2.7 1.5-3.7s2.4-1.6 4.2-1.9v-1.9c0-.2.1-.4.2-.5.1-.1.3-.2.5-.2H30c.2 0 .4.1.5.2.1.1.2.3.2.5v1.9c1.2.2 2.2.6 3 1.1.9.5 1.5 1.2 2 1.9s.7 1.4.7 2c0 .2-.1.3-.2.4-.1.1-.2.2-.4.2h-3.7c-.4 0-.7-.2-.9-.5-.1-.4-.4-.7-.8-.9-.5-.3-1-.4-1.6-.4-.7 0-1.3.1-1.7.4s-.6.7-.6 1.2.3.9.8 1.2c.5.3 1.5.6 3 .9 1.7.3 3 .7 4 1.1 1 .5 1.7 1 2.2 1.8.5.7.7 1.6.7 2.7 0 1.6-.6 2.9-1.7 3.9s-2.7 1.6-4.6 1.9V35c0 .2-.1.4-.2.5-.1.1-.3.2-.5.2h-2.3c-.4 0-.6-.1-.7-.2zm18 0c-.2-.1-.2-.3-.2-.5v-1.9c-1.3-.2-2.5-.5-3.4-1-.9-.5-1.6-1.1-2.1-1.9-.5-.7-.7-1.5-.8-2.4 0-.2.1-.3.2-.4.1-.1.3-.2.4-.2h3.5c.2 0 .4 0 .5.1.1.1.3.2.4.4.6 1 1.6 1.5 3 1.5 1 0 1.7-.1 2.2-.4.5-.3.8-.7.8-1.2 0-.4-.1-.7-.4-.9-.3-.2-.7-.5-1.3-.6-.6-.2-1.4-.4-2.5-.6-2.2-.4-3.8-1.1-4.8-1.9-1.1-.9-1.6-2.1-1.6-3.7 0-1.4.5-2.7 1.5-3.7s2.4-1.6 4.2-1.9v-1.9c0-.2.1-.4.2-.5.1-.1.3-.2.5-.2h2.3c.2 0 .4.1.5.2.1.1.2.3.2.5v1.9c1.2.2 2.2.6 3 1.1.9.5 1.5 1.2 2 1.9s.7 1.4.7 2c0 .2-.1.3-.2.4-.1.1-.2.2-.4.2h-3.7c-.4 0-.7-.2-.9-.5-.1-.4-.4-.7-.8-.9-.5-.3-1-.4-1.6-.4-.7 0-1.3.1-1.7.4-.4.3-.6.7-.6 1.2s.3.9.8 1.2c.5.3 1.5.6 3 .9 1.7.3 3 .7 4 1.1 1 .5 1.7 1 2.2 1.8s.7 1.6.7 2.7c0 1.6-.6 2.9-1.7 3.9s-2.7 1.6-4.6 1.9V35c0 .2-.1.4-.2.5-.1.1-.3.2-.5.2h-2.3c-.3 0-.4-.1-.5-.2zm17.9 0c-.1-.1-.2-.3-.2-.5v-1.9c-1.3-.2-2.5-.5-3.4-1-.9-.5-1.6-1.1-2.1-1.9-.5-.7-.7-1.5-.8-2.4 0-.2.1-.3.2-.4.1-.1.3-.2.4-.2h3.5c.2 0 .4 0 .5.1.1.1.3.2.4.4.5 1 1.6 1.5 3 1.5 1 0 1.7-.1 2.2-.4.5-.3.8-.7.8-1.2 0-.4-.1-.7-.4-.9-.3-.2-.7-.5-1.3-.6-.6-.2-1.4-.4-2.5-.6-2.2-.4-3.8-1.1-4.8-1.9-1.1-.9-1.6-2.1-1.6-3.7 0-1.4.5-2.7 1.5-3.7s2.4-1.6 4.2-1.9v-1.9c0-.2.1-.4.2-.5.1-.1.3-.2.5-.2h2.3c.2 0 .4.1.5.2.1.1.2.3.2.5v1.9c1.2.2 2.2.6 3 1.1.9.5 1.5 1.2 2 1.9s.7 1.4.7 2c0 .2-.1.3-.2.4-.1.1-.2.2-.4.2H68c-.4 0-.7-.2-.9-.5-.1-.4-.4-.7-.8-.9-.5-.3-1-.4-1.6-.4-.7 0-1.3.1-1.7.4s-.6.7-.6 1.2.3.9.8 1.2c.5.3 1.5.6 3 .9 1.7.3 3 .7 4 1.1 1 .5 1.7 1 2.2 1.8.5.7.7 1.6.7 2.7 0 1.6-.6 2.9-1.7 3.9s-2.7 1.6-4.6 1.9V35c0 .2-.1.4-.2.5-.1.1-.3.2-.5.2h-2.3c-.4 0-.6-.1-.7-.2zm-4.6 47.4H45c-2.8 0-5-2.2-5-5v-22c0-2.8 2.2-5 5-5h42c2.8 0 5 2.2 5 5v22c0 2.8-2.2 5-5 5H73.5l-5.4 5.4c-1.2 1.2-3.1 1.2-4.2 0l-5.4-5.4z" />
  <path fill="#ffffff" d="M73.5 74.7c.1-.1.3-.2.4-.2l.3-.3c.5-1.4 1-2.9 1.5-4.3.3-.8.6-1.6.9-2.3.2-.6.5-1.3.7-1.9 0-1.4-1.2-2.5-2.6-2.6H71c0-.1.1-.2.1-.3 0-.1.1-.2.1-.3.2-.3.3-.6.5-1 .1-.3.2-.5.3-.8.1-.3.1-.7.1-1V59c0-.2 0-.4-.1-.6 0-.2-.1-.5-.2-.7l-.3-.6c-.1-.2-.3-.4-.5-.5-.2-.2-.5-.3-.8-.3-.4-.1-.7-.1-1.1-.1-.2 0-.4.1-.6.3-.2.2-.3.4-.5.7-.1.2-.2.5-.3.7 0 .2-.1.5-.2.8-.1.4-.1.6-.2.8-.1.2-.1.4-.2.6-.1.2-.2.5-.4.6-.5.5-.9 1-1.3 1.6-.4.6-.9 1.1-1.3 1.6-.5.5-.8.8-1 .8-.2 0-.4.1-.6.3-.2.2-.2.4-.2.6V74c0 .2.1.4.3.6.1.1.1.1.2.1h10.7zm-12-9.2V74c0 .5-.4.8-.9.9h-3.8c-.2 0-.4-.1-.6-.3-.1-.1-.2-.3-.2-.6v-8.5c0-.2.1-.4.3-.6.2-.2.4-.3.6-.3h3.8c.5 0 .8.4.8.9z" />
</svg>
