<svg viewBox="0 0 100 90">
  <path fill="#e54239" d="M61.5 45c0-4.7-3.2-8.6-7.5-9.7v-7.8h1.2c.7 0 1.2-.6 1.2-1.2s-.5-1.3-1.2-1.3h-7.5c-.6 0-1.1.4-1.2 1h-5.8c-.7 0-1.2.6-1.2 1.2s.6 1.2 1.2 1.2H42v7.8c-1.5.4-2.9 1.1-4 2.1-1.3-1.5-3-2.6-5-3.1v-7.8h1.2c.7 0 1.2-.6 1.2-1.2s-.5-1.2-1.2-1.2h-7.5c-.6 0-1.1.4-1.2 1h-5.8c-.7 0-1.2.6-1.2 1.2s.6 1.2 1.2 1.2H21v7.8c-4.3 1.1-7.5 5-7.5 9.7v20h20v-1h1v1h20v-1h7V45zM47 28.5h1.2c.3 0 .5-.1.8-.3v7.1c-.7.2-1.4.4-2 .8v-7.6zm-21 0h1.2c.3 0 .5-.1.8-.3v7.1c-.7.2-1.4.4-2 .8v-7.6z"/>
  <path fill="#ffffff" d="M59.5 39h30v50h-30V39z"/>
  <path fill="#3b3e47" d="M89.5 89h-30V39h30v50zM61 87.5h27v-47H61v47z"/>
  <path fill="#ffffff" d="M59.5 39h30v17.5h-30V39z"/>
  <path fill="#3b3e47" d="M89.5 56.5h-30V39h30v17.5zM61 55h27V40.5H61V55z"/>
  <path fill="#ffffff" d="M9.5 39H61v50H9.5V39z"/>
  <path fill="#3b3e47" d="M61 89H9.5V39H61v50zm-50-1.5h48.5v-47H11v47z"/>
  <path fill="#3b3e47" d="M61 56.5H9.5V39H61v17.5zM11 55h48.5V40.5H11V55z"/>
  <path fill="#ffffff" d="M9.5 39h51l-9 20H.5l9-20z"/>
  <path fill="#3b3e47" d="M51.5 59H.5l9-20h51l-9 20zM2.8 57.5h47.7l7.7-17H10.5l-7.7 17z"/>
  <path fill="#ffffff" d="M59.5 39h30l10 20h-30l-10-20z"/>
  <path fill="#3b3e47" d="M99.5 59h-30l-10-20h30l10 20zm-29.1-1.5H97l-8.5-17H61.9l8.5 17z"/>
  <path fill="#ffffff" d="M51.5 10.5c0 28.4 11.7 35.8 22.2 42.5 10.5-6.7 22.2-14.1 22.2-42.5L73.7 1l-22.2 9.5z"/>
  <path fill="#3b3e47" d="M73.7 1l-22.2 9.5v.5c.1 11.4 2 20.3 6 27 3 5 6.7 8.7 13.2 13 .7.5 1.3.9 2.6 1.7l.4.3.4-.3c.9-.5 1.7-1.1 2.6-1.7 6.5-4.3 10.3-8 13.2-13 4-6.8 6-15.6 6-27v-.5L73.7 1zm14.9 36.3c-2.8 4.8-6.4 8.3-12.8 12.5-.7.5-1.4.9-2.1 1.4-1-.6-1.5-1-2.1-1.4-6.3-4.2-9.9-7.7-12.8-12.5-3.8-6.5-5.7-14.9-5.8-25.8l20.7-8.9 20.7 8.9c-.1 10.9-2 19.3-5.8 25.8z"/>
  <path fill="#3b3e47" d="M54.1 12.4v.5c.1 10.1 1.8 17.9 5.3 23.9 2.6 4.5 5.9 7.7 11.7 11.5.6.4 1.1.7 2.2 1.4l.4.3.4-.3c1.1-.7 1.6-1 2.2-1.4 5.8-3.8 9.1-7.1 11.7-11.5 3.5-6 5.3-13.8 5.3-23.9v-.5L73.7 4l-19.6 8.4zM86.7 36c-2.5 4.2-5.6 7.3-11.2 11-.6.4-1 .7-1.8 1.2-.8-.5-1.2-.8-1.8-1.2-5.6-3.7-8.7-6.8-11.2-11-3.3-5.7-5-13.1-5.1-22.6l18.1-7.8 18.1 7.8c-.1 9.6-1.8 17-5.1 22.6z"/>
  <path fill="#e54239" d="M57 14.6c0 21.3 8.8 26.8 16.6 31.9 7.9-5 16.6-10.6 16.6-31.9L73.7 7.5 57 14.6z"/>
</svg>
