<svg viewBox="0 0 140 75">
  <path fill="#3b3e47" d="M104.1 59.5c.7-4.8 4.9-8.5 9.9-8.5s9.2 3.7 9.9 8.5h1.5c-.7-5.6-5.6-10-11.4-10s-10.7 4.4-11.4 10h1.5zM104 61H47c0 3.9-2.3 7.3-5.6 9h68.3c-3.4-1.6-5.7-5-5.7-9zm14.4 9H137v4H1V51h2V40h15V18c0-3.9 3.1-7 7-7h70.6c2.6 0 5.1 1 6.9 2.8l15.8 15.1c.6.6 1.2 1 1.9 1.5l11.9 6.8c3.1 1.8 5 5.1 5 8.7v8.8c1.5.3 2.5 1.6 2.5 3.2 0 1.8-1.5 3.2-3.2 3.2H124c0 3.9-2.3 7.3-5.6 8.9zm6.9-15.5h10.4v-8.7c0-3-1.6-5.9-4.3-7.4l-11.9-6.8c-.8-.5-1.6-1-2.2-1.7l-15.8-15c-1.6-1.5-3.7-2.4-5.9-2.4H25c-3 0-5.5 2.5-5.5 5.5v36.5h6.2C28 50.6 32.2 48 37 48s9 2.6 11.2 6.5V13.9h39.2v.1H96c1.3 0 2.5.5 3.5 1.4l14.1 13.7c.7.2 1.2.7 1.4 1.3l.1.1h-.1c0 .2.1.3.1.5v17c4.3.4 8.1 2.9 10.2 6.5zm-22.6 0c2.2-3.8 6.2-6.4 10.8-6.5V31c0-.3-.2-.5-.5-.5H87.5v24h15.2zm-1.6 5c0-.7.1-1.2.3-1.8s.3-1.1.6-1.7H49c.4 1.1.8 2.2.9 3.5h51.2zm25.8 0h9.6c1 0 1.8-.8 1.8-1.8s-.8-1.8-1.8-1.8H126c.2.5.4 1.1.6 1.7s.2 1.3.3 1.9zM78.3 41H78c-.6 0-1-.4-1-1s.4-1 1-1h.3c.3-.6 1-1 1.7-1s1.4.4 1.7 1h.3c.6 0 1 .4 1 1s-.4 1-1 1h-.3c-.3.6-1 1-1.7 1s-1.4-.4-1.7-1zm9.2-25.4V29h23.8L98.4 16.5c-.7-.6-1.5-1-2.4-1l-8.5.1zm-1.5 0H49.8v39H86v-39zM90.3 41H90c-.6 0-1-.4-1-1s.4-1 1-1h.3c.3-.6 1-1 1.7-1s1.4.4 1.7 1h.3c.6 0 1 .4 1 1s-.4 1-1 1h-.3c-.3.6-1 1-1.7 1s-1.4-.4-1.7-1zM27.1 59.5C27.8 54.7 32 51 37 51s9.2 3.7 9.9 8.5h1.5c-.7-5.6-5.6-10-11.4-10s-10.7 4.4-11.4 10h1.5zm.7 5.3V70h4.9c-2.3-1.1-4-2.9-4.9-5.2zm-3.7-5.3c0-.7.2-1.2.3-1.8.1-.6.3-1.1.6-1.7h-5.5c-1 0-1.8.8-1.8 1.8s.8 1.8 1.8 1.8l4.6-.1zM18 54.9v-2.4H2.5V70h16v-9.1c-1.3-.4-2.2-1.6-2.2-3.1-.1-1.3.7-2.3 1.7-2.9zm2 6.1v9h6.2v-9H20zm-2-10v-9.5h-3V51h3zM4.5 41.5V51h9v-9.5h-9zm-2 30v1h133v-1H2.5zm34.5-2c4.7 0 8.5-3.8 8.5-8.5s-3.8-8.5-8.5-8.5-8.5 3.8-8.5 8.5 3.8 8.5 8.5 8.5zm77 0c4.7 0 8.5-3.8 8.5-8.5s-3.8-8.5-8.5-8.5-8.5 3.8-8.5 8.5 3.8 8.5 8.5 8.5z" />
  <circle fill="#e54239" cx="114" cy="61" r="5" />
  <circle fill="#e54239" cx="37" cy="61" r="5" />
</svg>
