<svg viewBox="0 0 139 63">
  <path fill="#ffffff" d="M3 40h23v20.5H3z"/>
  <path fill="none" stroke="#3b3e47" stroke-width="1.5" d="M3.8 40.8h21.5v19H3.8z"/>
  <path fill="#ffffff" d="M0 40h19v20.5H0z"/>
  <path fill="none" stroke="#3b3e47" stroke-width="1.5" d="M.8 40.8h17.5v19H.8z"/>
  <path fill="#ffffff" d="M5 29h13.5v12.5H5z"/>
  <path fill="none" stroke="#3b3e47" stroke-width="1.5" d="M5.8 29.8h12v11h-12z"/>
  <path fill="#ffffff" d="M2 29h12v12.5H2z"/>
  <path fill="none" stroke="#3b3e47" stroke-width="1.5" d="M2.8 29.8h10.5v11H2.8z"/>
  <path fill="#ffffff" d="M0 59h136v4H0z"/>
  <path fill="none" stroke="#3b3e47" stroke-width="1.5" d="M.8 59.8h134.5v2.5H.8z"/>
  <path fill="#ffffff" d="M24 0h70.6c2.6 0 5.1 1 6.9 2.8l15.8 15.1c.6.6 1.2 1 1.9 1.5l11.9 6.8c3.1 1.8 5 5.1 5 8.7V49H17V7c0-3.9 3.1-7 7-7z"/>
  <path fill="none" stroke="#3b3e47" stroke-width="1.5" d="M17.8 48.2h117.7V34.9c0-3.3-1.8-6.4-4.6-8l-12-6.9c-.8-.4-1.5-1-2.1-1.6L101.1 3.3c-1.7-1.7-4-2.6-6.4-2.6H24c-3.5 0-6.3 2.8-6.3 6.3v41.2z"/>
  <path fill="#ffffff" d="M85 3h10c1.3 0 2.5.5 3.5 1.4L114 19.5H85V3z"/>
  <path fill="none" stroke="#3b3e47" stroke-width="1.5" d="M85.8 3.8v15h26.4L97.9 5c-.8-.8-1.9-1.2-3-1.2h-9.1z"/>
  <path fill="#ffffff" d="M85 18h27c1.1 0 2 .9 2 2v28H85V18z"/>
  <path fill="none" stroke="#3b3e47" stroke-width="1.5" d="M85.8 18.8v28.5h27.5V20c0-.7-.6-1.2-1.2-1.2H85.8z"/>
  <path fill="#ffffff" d="M18.5 43h117c1.9 0 3.5 1.6 3.5 3.5s-1.6 3.5-3.5 3.5h-117c-1.9 0-3.5-1.6-3.5-3.5s1.6-3.5 3.5-3.5z"/>
  <path fill="none" stroke="#3b3e47" stroke-width="1.5" d="M18.5 43.8h117c1.5 0 2.8 1.2 2.8 2.8 0 1.5-1.2 2.8-2.8 2.8h-117c-1.5 0-2.8-1.2-2.8-2.8.1-1.6 1.3-2.8 2.8-2.8z"/>
  <path fill="#ffffff" d="M126 50c0-7.2-5.8-13-13-13s-13 5.8-13 13h26z"/>
  <path fill="none" stroke="#3b3e47" stroke-width="1.5" d="M125.2 49.2c-.4-6.4-5.7-11.5-12.2-11.5s-11.8 5.1-12.2 11.5h24.4z"/>
  <circle fill="#ffffff" cx="113" cy="50" r="10"/>
  <circle fill="none" stroke="#3b3e47" stroke-width="1.5" cx="113" cy="50" r="9.2"/>
  <circle fill="#e54239" cx="113" cy="50" r="5"/>
  <path fill="#ffffff" d="M49 50c0-7.2-5.8-13-13-13s-13 5.8-13 13h26z"/>
  <path fill="none" stroke="#3b3e47" stroke-width="1.5" d="M48.2 49.2c-.4-6.4-5.7-11.5-12.2-11.5s-11.8 5.1-12.2 11.5h24.4z"/>
  <circle fill="#ffffff" cx="36" cy="50" r="10"/>
  <circle fill="none" stroke="#3b3e47" stroke-width="1.5" cx="36" cy="50" r="9.2"/>
  <circle fill="#e54239" cx="36" cy="50" r="5"/>
  <circle fill="#ffffff" cx="91" cy="29" r="2"/>
  <circle fill="none" stroke="#3b3e47" stroke-width="1.5" cx="91" cy="29" r="1.2"/>
  <path fill="#ffffff" d="M89 28h4c.6 0 1 .4 1 1s-.4 1-1 1h-4c-.6 0-1-.4-1-1s.4-1 1-1z"/>
  <path fill="none" stroke="#3b3e47" stroke-width="1.5" d="M89.2 28.8h3.5c.3 0 .5.2.5.5s-.2.5-.5.5h-3.5c-.3 0-.5-.2-.5-.5.1-.3.3-.5.5-.5z"/>
  <path fill="#ffffff" d="M48 3h38.5v41H48z"/>
  <path fill="none" stroke="#3b3e47" stroke-width="1.5" d="M48.8 3.8h37v39.5h-37z"/>
  <circle fill="#ffffff" cx="79" cy="29" r="2"/>
  <circle fill="none" stroke="#3b3e47" cx="79" cy="29" r="1.5"/>
  <path fill="#ffffff" d="M77 28h4c.6 0 1 .4 1 1s-.4 1-1 1h-4c-.6 0-1-.4-1-1s.4-1 1-1z"/>
  <path fill="none" stroke="#3b3e47" d="M77 28.5h4c.3 0 .5.2.5.5s-.2.5-.5.5h-4c-.3 0-.5-.2-.5-.5s.2-.5.5-.5z"/>
</svg>
