<svg viewBox="0 0 140 75">
  <path fill="#e54239" d="M71 4l38 22-14-5-5 1-19-11-34 19-4 1v-5z" />
  <path fill="#3b3e47" d="M60 72.5H7V46h29V30l35-20 21.3 12.2-.7 1.3L71 11.7 37.5 30.9V46h24v25h44.1l.4 1.5H60zm-51.5-25V71H60V47.5H8.5z" />
  <path fill="#e54239" d="M95 14l38 22v5l-4-1-34-19-34 19-4 1v-5z" />
  <path fill="#3b3e47" d="M61.5 41.1V71h67V41.1L95 21.7 61.5 41.1zM130 71h8v4H2v-4h58V40.2L95 20l35 20.2V71zM3.5 72.5v1h133v-1H3.5z" />
  <path fill="#e54239" d="M13 52h42v19H13z" />
  <path fill="#3b3e47" d="M106 56.5V71h9V56.5h-9zm-1.5-1.5h12v17.5h-12V55z" />
  <path fill="#3b3e47" d="M70.5 47.5v12h16v-12h-16zM69 46h19v15H69V46z" />
  <path fill="#3b3e47" d="M78 46h1.5v15H78z" />
  <path fill="#3b3e47" d="M69 53h19v1.5H69z" />
  <path fill="#e54239" d="M103.5 51h14v4h-14z" />
</svg>
