<svg viewBox="0 0 136 75">
  <path fill="#ffffff" d="M0 71h136v3.5H0z"/>
  <path fill="none" stroke="#3b3e47" stroke-width="1.5" d="M.8 71.8h134.5v2H.8z"/>
  <path fill="#ffffff" d="M38 22h60v50.5H38z"/>
  <path fill="none" stroke="#3b3e47" stroke-width="1.5" d="M38.8 22.8h58.5v49H38.8z"/>
  <path fill="#ffffff" d="M38 17h60c1.7 0 3 1.3 3 3s-1.3 3-3 3H38c-1.7 0-3-1.3-3-3s1.3-3 3-3z"/>
  <path fill="none" stroke="#3b3e47" stroke-width="1.5" d="M38 17.8h60c1.2 0 2.2 1 2.2 2.2 0 1.2-1 2.2-2.2 2.2H38c-1.2 0-2.2-1-2.2-2.2 0-1.2 1-2.2 2.2-2.2z"/>
  <path fill="#ffffff" d="M32 31h72v32H32z"/>
  <path fill="none" stroke="#3b3e47" stroke-width="1.5" d="M32.8 31.8h70.5v30.5H32.8z"/>
  <path fill="#f34b4b" d="M41 29c1.1 0 2 .9 2 2v32c0 1.1-.9 2-2 2s-2-.9-2-2V31c0-1.1.9-2 2-2z"/>
  <path fill="#f34b4b" d="M36 29c1.1 0 2 .9 2 2v32c0 1.1-.9 2-2 2s-2-.9-2-2V31c0-1.1.9-2 2-2z"/>
  <path fill="#e54239" d="M31 29c1.1 0 2 .9 2 2v32c0 1.1-.9 2-2 2s-2-.9-2-2V31c0-1.1.9-2 2-2z"/>
  <path fill="#e54239" d="M100 29c1.1 0 2 .9 2 2v32c0 1.1-.9 2-2 2s-2-.9-2-2V31c0-1.1.9-2 2-2z"/>
  <path fill="#e54239" d="M105 29c1.1 0 2 .9 2 2v32c0 1.1-.9 2-2 2s-2-.9-2-2V31c0-1.1.9-2 2-2z"/>
  <path fill="#e54239" d="M47 29c1.1 0 2 .9 2 2v32c0 1.1-.9 2-2 2s-2-.9-2-2V31c0-1.1.9-2 2-2z"/>
  <path fill="#e54239" d="M53 29c1.1 0 2 .9 2 2v32c0 1.1-.9 2-2 2s-2-.9-2-2V31c0-1.1.9-2 2-2z"/>
  <path fill="#e54239" d="M59 29c1.1 0 2 .9 2 2v32c0 1.1-.9 2-2 2s-2-.9-2-2V31c0-1.1.9-2 2-2z"/>
  <path fill="#e54239" d="M65 29c1.1 0 2 .9 2 2v32c0 1.1-.9 2-2 2s-2-.9-2-2V31c0-1.1.9-2 2-2z"/>
  <path fill="#e54239" d="M71 29c1.1 0 2 .9 2 2v32c0 1.1-.9 2-2 2s-2-.9-2-2V31c0-1.1.9-2 2-2z"/>
  <path fill="#e54239" d="M77 29c1.1 0 2 .9 2 2v32c0 1.1-.9 2-2 2s-2-.9-2-2V31c0-1.1.9-2 2-2z"/>
  <path fill="#e54239" d="M83 29c1.1 0 2 .9 2 2v32c0 1.1-.9 2-2 2s-2-.9-2-2V31c0-1.1.9-2 2-2z"/>
  <path fill="#e54239" d="M89 29c1.1 0 2 .9 2 2v32c0 1.1-.9 2-2 2s-2-.9-2-2V31c0-1.1.9-2 2-2z"/>
  <path fill="#e54239" d="M95 29c1.1 0 2 .9 2 2v32c0 1.1-.9 2-2 2s-2-.9-2-2V31c0-1.1.9-2 2-2z"/>
  <path fill="#ffffff" d="M44 3h9v14h-9z"/>
  <path fill="none" stroke="#3b3e47" d="M44.5 3.5h8v13h-8z"/>
  <path fill="#ffffff" d="M44 12h9c.6 0 1 .4 1 1s-.4 1-1 1h-9c-.6 0-1-.4-1-1s.4-1 1-1z"/>
  <path fill="none" stroke="#3b3e47" d="M44 12.5h9c.3 0 .5.2.5.5s-.2.5-.5.5h-9c-.3 0-.5-.2-.5-.5s.2-.5.5-.5z"/>
  <path fill="#ffffff" d="M44 15h9c.6 0 1 .4 1 1s-.4 1-1 1h-9c-.6 0-1-.4-1-1s.4-1 1-1z"/>
  <path fill="none" stroke="#3b3e47" d="M44 15.5h9c.3 0 .5.2.5.5s-.2.5-.5.5h-9c-.3 0-.5-.2-.5-.5s.2-.5.5-.5z"/>
  <path fill="#ffffff" d="M44 9h9c.6 0 1 .4 1 1s-.4 1-1 1h-9c-.6 0-1-.4-1-1s.4-1 1-1z"/>
  <path fill="none" stroke="#3b3e47" d="M44 9.5h9c.3 0 .5.2.5.5s-.2.5-.5.5h-9c-.3 0-.5-.2-.5-.5s.2-.5.5-.5z"/>
  <path fill="#ffffff" d="M44 6h9c.6 0 1 .4 1 1s-.4 1-1 1h-9c-.6 0-1-.4-1-1s.4-1 1-1z"/>
  <path fill="none" stroke="#3b3e47" d="M44 6.5h9c.3 0 .5.2.5.5s-.2.5-.5.5h-9c-.3 0-.5-.2-.5-.5s.2-.5.5-.5z"/>
  <path fill="#ffffff" d="M44 3h9c.6 0 1 .4 1 1s-.4 1-1 1h-9c-.6 0-1-.4-1-1s.4-1 1-1z"/>
  <path fill="none" stroke="#3b3e47" d="M44 3.5h9c.3 0 .5.2.5.5s-.2.5-.5.5h-9c-.3 0-.5-.2-.5-.5s.2-.5.5-.5z"/>
  <path fill="#e54239" d="M48.5 0c.8 0 1.5.7 1.5 1.5V3h-3V1.5c0-.8.7-1.5 1.5-1.5z"/>
  <path fill="#e54239" d="M68.5 0c.8 0 1.5.7 1.5 1.5V3h-3V1.5c0-.8.7-1.5 1.5-1.5z"/>
  <path fill="#e54239" d="M88.5 0c.8 0 1.5.7 1.5 1.5V3h-3V1.5c0-.8.7-1.5 1.5-1.5z"/>
  <path fill="#ffffff" d="M64 3h9v14h-9z"/>
  <path fill="none" stroke="#3b3e47" d="M64.5 3.5h8v13h-8z"/>
  <path fill="#ffffff" d="M64 12h9c.6 0 1 .4 1 1s-.4 1-1 1h-9c-.6 0-1-.4-1-1s.4-1 1-1z"/>
  <path fill="none" stroke="#3b3e47" d="M64 12.5h9c.3 0 .5.2.5.5s-.2.5-.5.5h-9c-.3 0-.5-.2-.5-.5s.2-.5.5-.5z"/>
  <path fill="#ffffff" d="M64 15h9c.6 0 1 .4 1 1s-.4 1-1 1h-9c-.6 0-1-.4-1-1s.4-1 1-1z"/>
  <path fill="none" stroke="#3b3e47" d="M64 15.5h9c.3 0 .5.2.5.5s-.2.5-.5.5h-9c-.3 0-.5-.2-.5-.5s.2-.5.5-.5z"/>
  <path fill="#ffffff" d="M64 9h9c.6 0 1 .4 1 1s-.4 1-1 1h-9c-.6 0-1-.4-1-1s.4-1 1-1z"/>
  <path fill="none" stroke="#3b3e47" d="M64 9.5h9c.3 0 .5.2.5.5s-.2.5-.5.5h-9c-.3 0-.5-.2-.5-.5s.2-.5.5-.5z"/>
  <path fill="#ffffff" d="M64 6h9c.6 0 1 .4 1 1s-.4 1-1 1h-9c-.6 0-1-.4-1-1s.4-1 1-1z"/>
  <path fill="none" stroke="#3b3e47" d="M64 6.5h9c.3 0 .5.2.5.5s-.2.5-.5.5h-9c-.3 0-.5-.2-.5-.5s.2-.5.5-.5z"/>
  <path fill="#ffffff" d="M64 3h9c.6 0 1 .4 1 1s-.4 1-1 1h-9c-.6 0-1-.4-1-1s.4-1 1-1z"/>
  <path fill="none" stroke="#3b3e47" d="M64 3.5h9c.3 0 .5.2.5.5s-.2.5-.5.5h-9c-.3 0-.5-.2-.5-.5s.2-.5.5-.5z"/>
  <path fill="#ffffff" d="M84 3h9v14h-9z"/>
  <path fill="none" stroke="#3b3e47" d="M84.5 3.5h8v13h-8z"/>
  <path fill="#ffffff" d="M84 12h9c.6 0 1 .4 1 1s-.4 1-1 1h-9c-.6 0-1-.4-1-1s.4-1 1-1z"/>
  <path fill="none" stroke="#3b3e47" d="M84 12.5h9c.3 0 .5.2.5.5s-.2.5-.5.5h-9c-.3 0-.5-.2-.5-.5s.2-.5.5-.5z"/>
  <path fill="#ffffff" d="M84 15h9c.6 0 1 .4 1 1s-.4 1-1 1h-9c-.6 0-1-.4-1-1s.4-1 1-1z"/>
  <path fill="none" stroke="#3b3e47" d="M84 15.5h9c.3 0 .5.2.5.5s-.2.5-.5.5h-9c-.3 0-.5-.2-.5-.5s.2-.5.5-.5z"/>
  <path fill="#ffffff" d="M84 9h9c.6 0 1 .4 1 1s-.4 1-1 1h-9c-.6 0-1-.4-1-1s.4-1 1-1z"/>
  <path fill="none" stroke="#3b3e47" d="M84 9.5h9c.3 0 .5.2.5.5s-.2.5-.5.5h-9c-.3 0-.5-.2-.5-.5s.2-.5.5-.5z"/>
  <path fill="#ffffff" d="M84 6h9c.6 0 1 .4 1 1s-.4 1-1 1h-9c-.6 0-1-.4-1-1s.4-1 1-1z"/>
  <path fill="none" stroke="#3b3e47" d="M84 6.5h9c.3 0 .5.2.5.5s-.2.5-.5.5h-9c-.3 0-.5-.2-.5-.5s.2-.5.5-.5z"/>
  <path fill="#ffffff" d="M84 3h9c.6 0 1 .4 1 1s-.4 1-1 1h-9c-.6 0-1-.4-1-1s.4-1 1-1z"/>
  <path fill="none" stroke="#3b3e47" d="M84 3.5h9c.3 0 .5.2.5.5s-.2.5-.5.5h-9c-.3 0-.5-.2-.5-.5s.2-.5.5-.5z"/>
</svg>
