<svg viewBox="0 0 140 75">
  <path d="M3.5 72.5v1h133v-1H3.5zM94 5h-7v1h7V5zm1 0v1c.6 0 1 .4 1 1s-.4 1-1 1v1c.6 0 1 .4 1 1s-.4 1-1 1v1c.6 0 1 .4 1 1s-.4 1-1 1v1c.6 0 1 .4 1 1s-.4 1-1 1h5c1.7 0 3 1.3 3 3s-1.3 3-3 3v8h6v32h-6v8h38v4H2v-4h38v-8h-6V31h6v-8c-1.7 0-3-1.3-3-3s1.3-3 3-3h6c-.6 0-1-.4-1-1s.4-1 1-1v-1c-.6 0-1-.4-1-1s.4-1 1-1v-1c-.6 0-1-.4-1-1s.4-1 1-1V8c-.6 0-1-.4-1-1s.4-1 1-1V5c-.6 0-1-.4-1-1s.4-1 1-1h9c.6 0 1 .4 1 1s-.4 1-1 1v1c.6 0 1 .4 1 1s-.4 1-1 1v1c.6 0 1 .4 1 1s-.4 1-1 1v1c.6 0 1 .4 1 1s-.4 1-1 1v1c.6 0 1 .4 1 1s-.4 1-1 1h11c-.6 0-1-.4-1-1s.4-1 1-1v-1c-.6 0-1-.4-1-1s.4-1 1-1v-1c-.6 0-1-.4-1-1s.4-1 1-1V8c-.6 0-1-.4-1-1s.4-1 1-1V5c-.6 0-1-.4-1-1s.4-1 1-1h9c.6 0 1 .4 1 1s-.4 1-1 1v1c.6 0 1 .4 1 1s-.4 1-1 1v1c.6 0 1 .4 1 1s-.4 1-1 1v1c.6 0 1 .4 1 1s-.4 1-1 1v1c.6 0 1 .4 1 1s-.4 1-1 1h11c-.6 0-1-.4-1-1s.4-1 1-1v-1c-.6 0-1-.4-1-1s.4-1 1-1v-1c-.6 0-1-.4-1-1s.4-1 1-1V8c-.6 0-1-.4-1-1s.4-1 1-1V5c-.6 0-1-.4-1-1s.4-1 1-1h9c.6 0 1 .4 1 1s-.4 1-1 1zm-1 3h-7v1h7V8zm0 3h-7v1h7v-1zm0 4v-1h-7v1h7zM74 5h-7v1h7V5zm0 3h-7v1h7V8zm0 3h-7v1h7v-1zm0 4v-1h-7v1h7zM54 5h-7v1h7V5zm0 3h-7v1h7V8zm0 3h-7v1h7v-1zm0 4v-1h-7v1h7zM40 61.5v-29h-4.5v29H40zm60 0h4.5v-29H100v29zM41.5 31h57v-8h-57v8zm0 1.5V71h57v-8H42v-1.5h56.5v-29h-57zm-1.5-14c-.8 0-1.5.7-1.5 1.5s.7 1.5 1.5 1.5h60c.8 0 1.5-.7 1.5-1.5s-.7-1.5-1.5-1.5H40z" fill="#3b3e47" />
  <path fill="#f34b4b" d="M43 29c1.1 0 2 .9 2 2v32c0 1.1-.9 2-2 2s-2-.9-2-2V31c0-1.1.9-2 2-2z" />
  <path fill="#f34b4b" d="M38 29c1.1 0 2 .9 2 2v32c0 1.1-.9 2-2 2s-2-.9-2-2V31c0-1.1.9-2 2-2z" />
  <path fill="#e54239" d="M33 29c1.1 0 2 .9 2 2v32c0 1.1-.9 2-2 2s-2-.9-2-2V31c0-1.1.9-2 2-2z" />
  <path fill="#e54239" d="M102 29c1.1 0 2 .9 2 2v32c0 1.1-.9 2-2 2s-2-.9-2-2V31c0-1.1.9-2 2-2z" />
  <path fill="#e54239" d="M107 29c1.1 0 2 .9 2 2v32c0 1.1-.9 2-2 2s-2-.9-2-2V31c0-1.1.9-2 2-2z" />
  <path fill="#e54239" d="M49 29c1.1 0 2 .9 2 2v32c0 1.1-.9 2-2 2s-2-.9-2-2V31c0-1.1.9-2 2-2z" />
  <path fill="#e54239" d="M55 29c1.1 0 2 .9 2 2v32c0 1.1-.9 2-2 2s-2-.9-2-2V31c0-1.1.9-2 2-2z" />
  <path fill="#e54239" d="M61 29c1.1 0 2 .9 2 2v32c0 1.1-.9 2-2 2s-2-.9-2-2V31c0-1.1.9-2 2-2z" />
  <path fill="#e54239" d="M67 29c1.1 0 2 .9 2 2v32c0 1.1-.9 2-2 2s-2-.9-2-2V31c0-1.1.9-2 2-2z" />
  <path fill="#e54239" d="M73 29c1.1 0 2 .9 2 2v32c0 1.1-.9 2-2 2s-2-.9-2-2V31c0-1.1.9-2 2-2z" />
  <path fill="#e54239" d="M79 29c1.1 0 2 .9 2 2v32c0 1.1-.9 2-2 2s-2-.9-2-2V31c0-1.1.9-2 2-2z" />
  <path fill="#e54239" d="M85 29c1.1 0 2 .9 2 2v32c0 1.1-.9 2-2 2s-2-.9-2-2V31c0-1.1.9-2 2-2z" />
  <path fill="#e54239" d="M91 29c1.1 0 2 .9 2 2v32c0 1.1-.9 2-2 2s-2-.9-2-2V31c0-1.1.9-2 2-2z" />
  <path fill="#e54239" d="M97 29c1.1 0 2 .9 2 2v32c0 1.1-.9 2-2 2s-2-.9-2-2V31c0-1.1.9-2 2-2z" />
  <path fill="#e54239" d="M50.5 0c.8 0 1.5.7 1.5 1.5V3h-3V1.5c0-.8.7-1.5 1.5-1.5z" />
  <path fill="#e54239" d="M70.5 0c.8 0 1.5.7 1.5 1.5V3h-3V1.5c0-.8.7-1.5 1.5-1.5z" />
  <path fill="#e54239" d="M90.5 0c.8 0 1.5.7 1.5 1.5V3h-3V1.5c0-.8.7-1.5 1.5-1.5z" />
</svg>
