<svg viewBox="0 0 140 75">
  <path fill="#3b3e47" d="M3.5 71.5v1h133v-1H3.5zM2 70h136v4H2v-4z" />
  <path fill="#3b3e47" d="M117.5 2.5h-73L39 1h80v22l-1.5-.4V2.5z" />
  <path fill="#3b3e47" d="M10.5 2.5h77V23H89V1H9v70.5l1.5-.9V2.5zm77 0V23H89V1H9v70.5l1.5-.9V2.5h77z" />
  <path fill="#e54239" d="M65.5 11.5v7.8c1.4.4 3.2 1.5 5.4 3.5l-15.8.1c2.2-2 4-3.2 5.4-3.6v-7.8h-1.2c-.7 0-1.2-.6-1.2-1.2S58.6 9 59.2 9h7.5c.7 0 1.2.6 1.2 1.2s-.6 1.2-1.2 1.2h-1.2z" />
  <path fill="#e54239" d="M107.5 11.5v7.8c2.2.6 4.1 1.9 5.4 3.6l-15.7-.2c1.3-1.7 3.2-2.9 5.3-3.4v-7.8h-1.2c-.7 0-1.2-.6-1.2-1.2s.6-1.2 1.2-1.2h7.5c.7 0 1.2.6 1.2 1.2s-.6 1.2-1.2 1.2h-1.3z" />
  <path fill="#e54239" d="M114.5 10.5v7.8c2.5.7 4.7 2.3 6 4.5 0 .2-17.5 0-16.9-.2 1.3-2.1 3.4-3.6 5.9-4.2v-7.8h-1.2c-.7 0-1.2-.6-1.2-1.2s.6-1.2 1.2-1.2h7.5c.7 0 1.2.6 1.2 1.2s-.6 1.2-1.2 1.2h-1.3z" />
  <path fill="#e54239" d="M86.5 11.5v7.8c2.1.5 4 1.8 5.3 3.4 0 0-15.5.2-15.5-.1 1.3-1.6 3.1-2.8 5.2-3.3v-7.8h-1.2c-.7 0-1.2-.6-1.2-1.2S79.6 9 80.2 9h7.5c.7 0 1.2.6 1.2 1.2s-.6 1.2-1.2 1.2h-1.2z" />
  <path fill="#e54239" d="M93.5 10.5v7.8c2.5.6 4.6 2.2 6 4.4H82.6c1.3-2.1 3.5-3.7 6-4.4v-7.8h-1.2c-.7 0-1.2-.6-1.2-1.2s.4-1.3 1-1.3h7.5c.7 0 1.3.6 1.3 1.2s-.6 1.2-1.2 1.2h-1.3z" />
  <path fill="#e54239" d="M72.5 10.5v7.8c2.6.7 4.8 2.4 6.1 4.6 0-.1-17.2-.1-17.2-.1 1.3-2.2 3.5-3.9 6.1-4.6v-7.8h-1.2c-.7 0-1.2-.6-1.2-1.2-.1-.6.5-1.2 1.1-1.2h7.5c.7 0 1.3.6 1.3 1.2 0 .7-.6 1.2-1.2 1.2h-1.3z" />
  <path fill="#3b3e47" d="M127.5 70V41h1.5v30.5H99V22l1.5 1v47h27zm0 0V41h1.5v30.5H99V22l1.5 1v47h27zm-27-45v46.5H49V42h-9l9-20h80l10 20h-30l-8.5-17zm-50 17v28H99V24.2L91 42H50.5zM50 23.5l-7.7 17H90l7.7-17H50zm59.9 17h26.6l-8.5-17h-26.6l8.5 17z" />
  <path fill="#e54239" d="M59.1 53.4L61 62h2.6l1.1-6.1 1.1 6.1h2.5l1.9-8.6H68l-1 6.1-1.1-6.1h-2.4l-1.1 6.1-1-6.1h-2.3zm12-3v1.9h2.2v-1.9h-2.2zm0 3V62h2.2v-8.6h-2.2zm3.7 0V62H77v-5.7c0-.9.4-1.4 1.2-1.4.3 0 .6.1.7.3.1.2.2.5.2.9V62h2.2v-6.4c0-.9-.2-1.5-.6-1.9-.4-.4-.9-.6-1.6-.6-.5 0-.9.1-1.3.3-.4.2-.7.5-.9.9v-1h-2.1zM87 56.7c0-.3 0-.6-.1-.9 0-.3-.1-.5-.2-.6s-.2-.3-.3-.4c-.1-.1-.3-.1-.6-.1s-.4.1-.6.2c-.1.1-.3.2-.3.4-.1.2-.1.3-.2.6 0 .2-.1.4-.1.6v.3H87zM84.7 58v.7c0 .3 0 .5.1.7 0 .2.1.5.2.6s.2.3.3.4c.1.1.3.2.5.2.4 0 .6-.1.8-.4.2-.3.3-.7.4-1.2h2c0 1-.3 1.8-.8 2.3-.5.5-1.3.8-2.3.8-.8 0-1.4-.1-1.9-.4-.4-.3-.8-.6-1-1.1s-.3-.9-.4-1.5c0-.5-.1-1.1-.1-1.6 0-.6 0-1.1.1-1.7s.2-1 .5-1.4c.2-.4.6-.7 1-1 .4-.2 1-.4 1.8-.4.6 0 1.2.1 1.6.3.4.2.7.5 1 .9.2.4.4.8.5 1.4s.1 1.1.1 1.8v.6h-4.4z" />
</svg>
