<svg viewBox="0 0 137 73">
  <path fill="#ffffff" d="M0 69h136v4H0z"/>
  <path fill="none" stroke="#3b3e47" stroke-width="1.5" d="M.8 69.8h134.5v2.5H.8z"/>
  <path fill="#ffffff" d="M37 0h80v70H37z"/>
  <path fill="none" stroke="#3b3e47" stroke-width="1.5" d="M37.8.8h78.5v68.5H37.8z"/>
  <path fill="#ffffff" d="M7 0h80v70.5H7z"/>
  <path fill="none" stroke="#3b3e47" stroke-width="1.5" d="M7.8.8h78.5v69H7.8z"/>
  <path fill="#e54239" d="M63.5 10.5v7.8c4.3 1.1 7.5 5 7.5 9.7v20H51V28c0-4.7 3.2-8.6 7.5-9.7v-7.8h-1.2c-.7 0-1.2-.6-1.2-1.2S56.6 8 57.2 8h7.5c.7 0 1.3.6 1.3 1.2s-.6 1.2-1.2 1.2h-1.3z"/>
  <path fill="#e54239" d="M105.5 10.5v7.8c4.3 1.1 7.5 5 7.5 9.7v20H93V28c0-4.7 3.2-8.6 7.5-9.7v-7.8h-1.2c-.7 0-1.2-.6-1.2-1.2S98.6 8 99.2 8h7.5c.7 0 1.2.6 1.2 1.2s-.6 1.2-1.2 1.2h-1.2z"/>
  <path fill="#e54239" d="M112.5 9.5v7.8c4.3 1.1 7.5 5 7.5 9.7v20h-20V27c0-4.7 3.2-8.6 7.5-9.7V9.5h-1.2c-.7 0-1.2-.6-1.2-1.2s.6-1.2 1.2-1.2h7.5c.7 0 1.2.6 1.2 1.2s-.6 1.2-1.2 1.2h-1.3z"/>
  <path fill="#e54239" d="M84.5 10.5v7.8c4.3 1.1 7.5 5 7.5 9.7v20H72V28c0-4.7 3.2-8.6 7.5-9.7v-7.8h-1.2c-.7 0-1.2-.6-1.2-1.2S77.6 8 78.2 8h7.5c.7 0 1.3.6 1.3 1.2s-.6 1.2-1.2 1.2h-1.3z"/>
  <path fill="#e54239" d="M91.5 9.5v7.8c4.3 1.1 7.5 5 7.5 9.7v20H79V27c0-4.7 3.2-8.6 7.5-9.7V9.5h-1.2c-.7 0-1.2-.6-1.2-1.2S84.6 7 85.2 7h7.5c.7 0 1.3.6 1.3 1.2s-.6 1.2-1.2 1.2h-1.3z"/>
  <path fill="#ffffff" d="M97 21h30v49.5H97z"/>
  <path fill="none" stroke="#3b3e47" stroke-width="1.5" d="M97.8 21.8h28.5v48H97.8z"/>
  <path fill="#ffffff" d="M97 21h30v17H97z"/>
  <path fill="none" stroke="#3b3e47" stroke-width="1.5" d="M97.8 21.8h28.5v15.5H97.8z"/>
  <path fill="#e54239" d="M70.5 9.5v7.8c4.3 1.1 7.5 5 7.5 9.7v20H58V27c0-4.7 3.2-8.6 7.5-9.7V9.5h-1.2c-.7 0-1.2-.6-1.2-1.2S63.6 7 64.2 7h7.5c.7 0 1.3.6 1.3 1.2s-.6 1.2-1.2 1.2h-1.3z"/>
  <path fill="#ffffff" d="M47 21h51.5v49.5H47z"/>
  <path fill="none" stroke="#3b3e47" stroke-width="1.5" d="M47.8 21.8h50v48h-50z"/>
  <path fill="#ffffff" d="M47 21h51.5v17H47z"/>
  <path fill="none" stroke="#3b3e47" stroke-width="1.5" d="M47.8 21.8v15.5h50V21.8h-50z"/>
  <path fill="#ffffff" d="M47 21h51l-9 20H38z"/>
  <path fill="none" stroke="#3b3e47" stroke-width="1.5" d="M47.5 21.8l-8.3 18.5h49.4l8.3-18.5H47.5z"/>
  <path fill="#ffffff" d="M97 21h30l10 20h-30z"/>
  <path fill="none" stroke="#3b3e47" stroke-width="1.5" d="M98.2 21.8l9.2 18.5h28.3l-9.2-18.5H98.2z"/>
  <path fill="#e54239" d="M57.1 52.4L59 61h2.6l1.1-6.1 1.1 6.1h2.5l1.9-8.6H66l-1 6.1-1.1-6.1h-2.4l-1.1 6.1-1-6.1h-2.3zm12-3v1.9h2.2v-1.9h-2.2zm0 3V61h2.2v-8.6h-2.2zm3.7 0V61H75v-5.7c0-.9.4-1.4 1.2-1.4.3 0 .6.1.7.3.1.2.2.5.2.9V61h2.2v-6.4c0-.9-.2-1.5-.6-1.9-.4-.4-.9-.6-1.6-.6-.5 0-.9.1-1.3.3-.4.2-.7.5-.9.9v-1h-2.1zM85 55.7c0-.3 0-.6-.1-.9 0-.3-.1-.5-.2-.6s-.2-.3-.3-.4c-.1-.1-.3-.1-.6-.1s-.4.1-.6.2c-.1.1-.3.2-.3.4-.1.2-.1.3-.2.6 0 .2-.1.4-.1.6v.3H85zM82.7 57v.7c0 .3 0 .5.1.7 0 .2.1.5.2.6s.2.3.3.4c.1.1.3.2.5.2.4 0 .6-.1.8-.4.2-.3.3-.7.4-1.2h2c0 1-.3 1.8-.8 2.3-.5.5-1.3.8-2.3.8-.8 0-1.4-.1-1.9-.4-.4-.3-.8-.6-1-1.1s-.3-.9-.4-1.5c0-.5-.1-1.1-.1-1.6 0-.6 0-1.1.1-1.7s.2-1 .5-1.4c.2-.4.6-.7 1-1 .4-.2 1-.4 1.8-.4.6 0 1.2.1 1.6.3.4.2.7.5 1 .9.2.4.4.8.5 1.4s.1 1.1.1 1.8v.6h-4.4z"/>
</svg>
