<svg viewBox="0 0 140 75">
  <path fill="#3b3e47" d="M3.5 72.5v1h133v-1H3.5zm96.4-36l-.2.5h4.3v30H48V37h28.9l-.2-.5H47.5v31h57v-31h-4.6zm-.7 0H77.8l.2.5h21.1l.1-.5zm-.5 2H78.5l1.5 3.8 9.4 8V53l7.1 3.5v5.2l2.7 3.8h3.3v-27h-3.2l.1 3.3-.4-.3-.3-2.6v-.4zM78 65.5h20.2l-2-3.8v-4.9l-5.3-2.6-1.5 3.5h-4l-.8-1.7.8 1.8h.5l-1.5-3.3 4.6-1.2V53l-5.3 1.3.8 1.8-.8-1.8L89 53v-2.5l-9.6-8.1-1.9-4h-28v27h27.8l.4-1.9 4.9-2.6.4.3-4.7 2.6-.3 1.7zM57.6 69h-6.5c-.1.8-.5 1.5-1 2h5.2c.3-.9 1.2-1.5 2.3-2zm36.8 0c1.1.5 2 1.1 2.4 2H98v-2h-3.6zm.5 2c-1.1-.9-3.7-1.5-6.9-1.5H64c-3.2 0-5.8.6-6.9 1.5h37.8zM17.8 33c-.1-3.1-.2-6.5-.3-10H14V11h3.1c-.1-1.5-.1-3-.2-4.6-.1-1.6 1.1-2.9 2.7-3.1l8.3-.8H15c-.8 0-1.5.7-1.5 1.5v65c0 .8.7 1.5 1.5 1.5h4.1c-.1-2.1-.3-7.2-.5-15.5H14V43h4.2c-.1-2.2-.2-4.5-.2-7h-4v-3h3.8zm.8 20.5c-.1-2.7-.2-5.7-.3-9h-2.7v9h3zm-1.2-32c-.1-2.9-.2-5.9-.3-9h-1.6v9h1.9zM49.6 69H48c0 .4-.1.9-.3 1.3l.5-.1c.7-.1 1.2-.6 1.4-1.2zm-9.4 1.5H45c.8 0 1.5-.7 1.5-1.5H46V35h.5V4c0-.8-.7-1.5-1.5-1.5h-1.7L19.8 4.8c-.8.1-1.4.8-1.4 1.5l2.2 64.2h17.7l1.3-.4.6.4zM49.9 35H70V3h53l4 1 1 5.7-1 3.6 1 5.7v52h10v4H2v-4h10.8c-.5-.5-.8-1.2-.8-2V4c0-1.7 1.3-3 3-3h28.2l2.3-.2c1.6-.2 3.1 1 3.3 2.7 0 0 .4 10.5 1.1 31.5zm-1.5 0L48 22.9V35h.4zm23.1 0H98V4.5H71.5V35zm28 0h1V4.5h-1V35zm2.5 0h4v12h20v7h-20v1h20v7h-20v1h20v7h-21v-1h-3v2h24.5V19l-1-5.9 1-3.6-.8-4.4-2.9-.7H102V35zm-1.5 34h-1v.5h1V69zm5.5-20.5v4h18.5v-4H106zm0 8v4h18.5v-4H106zm0 8v4h18.5v-4H106z" />
  <path fill="#e54239" d="M14 23h4v2h-4z" />
  <path fill="#e54239" d="M14 55h6v2h-6z" />
  <path fill="#e54239" transform="rotate(-2.001 20.999 36.5) scale(1.00001)" d="M20 27h2v19h-2z" />
  <path fill="#e54239" transform="rotate(-5 113.02 50.936)" d="M108 50.4h10v1h-10z" />
  <path fill="#e54239" d="M108 58h10v1h-10z" />
  <path fill="#e54239" d="M108 66h10v1h-10z" />
  <path fill="#e54239" d="M14 56h1v13h-1z" />
  <path fill="#e54239" d="M14 23h1v13h-1z" />
</svg>
