<svg viewBox="0 0 136 75">
  <path fill="#fff" d="M0 71h136v4H0z"/>
  <path fill="none" stroke="#3b3e47" stroke-width="1.5" d="M.8 71.8h134.5v2.5H.8z"/>
  <path fill="#fff" d="M13 1h30c1.7 0 3 1.3 3 3v65c0 1.7-1.3 3-3 3H13c-1.7 0-3-1.3-3-3V4c0-1.7 1.3-3 3-3z"/>
  <path fill="none" stroke="#3b3e47" stroke-width="1.5" d="M13.8 1.8h28.5c1.7 0 3 1.3 3 3v63.5c0 1.7-1.3 3-3 3H13.8c-1.7 0-3-1.3-3-3V4.8c0-1.7 1.3-3 3-3z"/>
  <path fill="#fff" d="M12 11h34v12H12z"/>
  <path fill="none" stroke="#3b3e47" stroke-width="1.5" d="M12.8 11.8h32.5v10.5H12.8z"/>
  <path fill="#fff" d="M12 43h34v12H12z"/>
  <path fill="none" stroke="#3b3e47" stroke-width="1.5" d="M12.8 43.8h32.5v10.5H12.8z"/>
  <path fill="#e54239" d="M12 23h34v2H12zm0 32h34v2H12z"/>
  <path fill="#fff" d="M12 33h34v3H12z"/>
  <path fill="none" stroke="#3b3e47" stroke-width="1.5" d="M12.8 33.8h32.5v1.5H12.8z"/>
  <path fill="#fff" d="M17.6 3.3L43.5.8c1.6-.2 3.1 1 3.3 2.7v.2l2.3 64.9c.1 1.6-1.1 2.9-2.7 3.1l-7.9.8-1.1-.7-4.4 1.3-2.6-.8-1.6 1.2-8.3.8c-1.6.2-3.1-1-3.3-2.7v-.2l-2.3-65c-.1-1.6 1.1-2.9 2.7-3.1z"/>
  <path fill="none" stroke="#3b3e47" stroke-width="1.5" d="M28.5 72.7l1.8-1.3 2.7.9 4.5-1.3 1.2.8 7.7-.7c1.2-.1 2.1-1.1 2-2.3L46.1 3.7v-.1c-.1-1.2-1.2-2.1-2.5-2L17.7 4.1c-1.2.1-2.1 1.1-2 2.3L18 71.3v.1c.1 1.2 1.2 2.1 2.5 2l8-.7z"/>
  <path fill="#e54239" d="M17.669 27.041l1.9988-.07.6634 18.9887-1.9988.0698z"/>
  <path fill="#fff" d="M68 3h53l4 1 1 5.7-1 3.5 1 5.7v53.6H68z"/>
  <path fill="none" stroke="#3b3e47" stroke-width="1.5" d="M68.8 3.8v68h56.5V19l-1-5.8 1-3.6-.9-5-3.4-.9H68.8z"/>
  <path fill="#fff" d="M96 3h4v68h-4z"/>
  <path fill="none" stroke="#3b3e47" stroke-width="1.5" d="M96.8 3.8h2.5v66.5h-2.5z"/>
  <path fill="#fff" d="M98 47h26v7H98z"/>
  <path fill="none" stroke="#3b3e47" stroke-width="1.5" d="M98.8 47.8h24.5v5.5H98.8z"/>
  <path fill="#e54239" d="M105.9724 50.8395l9.962-.8715.087.9961-9.9619.8716z"/>
  <path fill="#fff" d="M98 55h26v7H98z"/>
  <path fill="none" stroke="#3b3e47" stroke-width="1.5" d="M98.8 55.8h24.5v5.5H98.8z"/>
  <path fill="#e54239" d="M106 58h10v1h-10z"/>
  <path fill="#fff" d="M98 63h26v7H98z"/>
  <path fill="none" stroke="#3b3e47" stroke-width="1.5" d="M98.8 63.8h24.5v5.5H98.8z"/>
  <path fill="#e54239" d="M106 66h10v1h-10z"/>
  <path fill="none" stroke="#3b3e47" stroke-width="1.5" d="M53.9 71.2h40.2c-.8-1.6-4-2.5-8.1-2.5H62c-4.1.1-7.3.9-8.1 2.5z"/>
  <path fill="#fff" d="M44 35h60v34H44z"/>
  <path fill="none" stroke="#3b3e47" stroke-width="1.5" d="M44.8 35.8h58.5v32.5H44.8z"/>
  <path fill="#fff" d="M46 37h56v30H46z"/>
  <path fill="none" stroke="#3b3e47" stroke-width="1.5" d="M46.8 37.8v28.5h54.5V37.8H46.8z"/>
  <path fill="#3b3e47" d="M97 67l-2.8-5.3v-4.8l-5.3-2.6-1.4 3.5h-4.1l-1.6-3.5 5.3-1.3v-2.5l-9.6-8-2.8-6h1l2.3 5.8 9.5 8V53l7 3.5v5.2l3.8 5.3z"/>
  <path fill="#3b3e47" d="M82.4 54.5l1.5 3.3h-.5l-1.6-3.5 5.3-1.3v.3zM75 66.8l.8-3.2 4.8-2.6.5.3-4.7 2.6-.6 2.9zM98.1 36l-.8 2.2.1 3.6-.4-.3-.3-2.6.6-2.9z"/>
  <path fill="#e54239" d="M12 56h1v13h-1zm0-33h1v13h-1z"/>
</svg>
