<svg xmlns="http://www.w3.org/2000/svg" viewBox="0 0 1440 663">
  <g fill="none" fill-rule="evenodd">
    <g fill="#DB3F37">
      <path d="M463 223l14.3477-11h16.1986v-12.8437h9.095v-13.0127h17.5276v-6.256H564v5.8044h3.5068v13.4643H574V506H463m402-228.8047h15.623v-18.3486h9.5254V253h46.7956v5.8467h8.9115v18.3486H963v228.63h-98v-76.2276m477-152.4024h15.623v-18.3486h9.5254V253h46.7956v5.8467h8.9115v18.3486H1440v228.63h-98v-76.2276"/>
      <path d="M0 449h1440v214H0"/>
      <path d="M573 326h126v180H573zm-225-48.8047h15.623v-18.3486h9.5254V253h46.7956v5.8467h8.9115v18.3486H446v228.63h-98v-76.2276"/>
      <path d="M697 232.712h16.0742v-20.127h11.71v-22.3662h5.9326v-7.2725h7.7334v-6.8692h3.5244V156h3.2002v20.077h3.042v6.8693h8.8662v7.2725h5.2002v22.3662h11.913v20.127H789v273h-92m591-273h16.0742v-20.127h11.71v-22.3662h5.9326v-7.2725h7.7334v-6.8692h3.5244V156h3.2002v20.077h3.042v6.8693h8.8662v7.2725h5.2002v22.3662h11.913v20.127H1380v273h-92m-1068-183h16.0742v-10.127h31.122v10.127H312v183h-92m-92-183h16.0742v-20.127h11.71v-22.3662h5.9326v-7.2725h7.7334v-6.8692h3.5244V246h3.2002v20.077h3.042v6.8693h8.8662v7.2725h5.2002v22.3662h11.913v20.127H220v183h-92M0 374h64l64 50v82H0"/>
      <path d="M26 352h19v23H26zm46 7h6v36h-6zm717 15l128 50v82H789"/>
    </g>
    <path fill="#D63E36" d="M527.0742 172.712c0-8.142 4.2788-15.6848 11.2673-19.8624l.4427-.2646v-6.1904c0-5.9243 2.1023-11.6564 5.9326-16.176v-7.2723l6.3827-22.1764c.7998-2.779 3.3423-4.693 6.234-4.693 2.9145 0 5.5002 1.8695 6.4135 4.6372l7.336 22.2318v7.2726c3.3768 4.5455 5.2002 10.0576 5.2002 15.7202v6.646l.5953.3497c7.0117 4.12 11.3178 11.6446 11.3178 19.777 2.4745 3.253 3.8773 7.1942 4.0143 11.279L603 505.7117h-92l10.7612-320.88c.1533-4.5713 2.055-8.9095 5.313-12.12z"/>
    <path fill="#DB3F37" d="M534 195h4v291h-4m10-291h4v291h-4m10-291h4v291h-4m10-291h4v291h-4m10-291h4v291h-4"/>
    <path fill="#CF3B34" d="M603 277.1953h15v-18.3486h20V253h48v5.8467h20v18.3486h15v228.63H603"/>
    <path fill="#D63E36" d="M619 293h86v10h-86zm0 20h86v10h-86zm0 20h86v10h-86zm0 20h86v10h-86zm0 20h86v10h-86zm0 20h86v10h-86zm0 20h86v10h-86zm0 20h86v10h-86zm0 20h86v10h-86zM287 172.712h16.0742v-20.127h11.71v-22.3662h5.9326v-7.2725h7.7334v-6.8692h3.5244V96h3.2002v20.077h3.042v6.8693h8.8662v7.2725h5.2002v22.3662h11.913v20.127H379v333h-92"/>
    <path fill="#DB3F37" d="M306 195h4v31h-4zm10 0h4v31h-4zm10 0h4v31h-4zm10 0h4v31h-4zm10 0h4v31h-4zm10 0h4v31h-4zm-50 40h4v31h-4zm10 0h4v31h-4zm10 0h4v31h-4zm10 0h4v31h-4zm10 0h4v31h-4zm10 0h4v31h-4zm-50 40h4v31h-4zm10 0h4v31h-4zm10 0h4v31h-4zm10 0h4v31h-4zm10 0h4v31h-4zm10 0h4v31h-4zm-50 40h4v31h-4zm10 0h4v31h-4zm10 0h4v31h-4zm10 0h4v31h-4zm10 0h4v31h-4zm10 0h4v31h-4z"/>
    <path fill="#D63E36" d="M414 298.8877l64 20v187h-64"/>
    <path fill="#DB3F37" d="M429 324h4v171h-4zm10 0h4v171h-4zm10 0h4v171h-4zm10 0h4v171h-4z"/>
    <path fill="#CF3B34" d="M227 395h158v111H227zm32-23h94v23h-94z"/>
    <path fill="#D63E36" d="M240 408h25v14h-25zm0 33h25v14h-25zm35-33h25v14h-25zm0 33h25v14h-25zm35-33h25v14h-25zm0 33h25v14h-25zm35-33h25v14h-25zm0 33h25v14h-25z"/>
    <path fill="#DB3F37" d="M792 133c-8.8366 0-16-7.1634-16-16s7.1634-16 16-16c6.737 0 12.5015 4.1638 14.8604 10.0583.3746-.0385.7548-.0583 1.1396-.0583 6.075 0 11 4.925 11 11s-4.925 11-11 11h-16zm-592 85c8.8366 0 16-7.1634 16-16s-7.1634-16-16-16c-6.737 0-12.5015 4.1638-14.8604 10.0583-.3746-.0385-.7548-.0583-1.1396-.0583-6.075 0-11 4.925-11 11s4.925 11 11 11h16zM662 32c6.075 0 11-4.925 11-11s-4.925-11-11-11c-.3848 0-.765.0198-1.1396.0583C658.5014 4.1638 652.737 0 646 0c-8.8366 0-16 7.1634-16 16 0 .762.0533 1.5117.1563 2.2453C627.1848 19.0545 625 21.772 625 25c0 3.866 3.134 7 7 7h30z"/>
  </g>
</svg>
