<svg viewBox="0 0 68 30">
  <path d="M35.1 15.7h1v2.1h-1zm9.7-.9c-.1-.2-.1-.4-.1-.6 0-.7.3-1.3.8-1.7.1-.1.2-.2.4-.2-3.4-2.5-7-5.1-11.1-5.3-1.1-.1-2.2-.1-3.3-.1l2 7.3 11.3.6zm9.3 7.6c-.7 0-1.3.6-1.3 1.3 0 .7.6 1.3 1.3 1.3.7 0 1.3-.6 1.3-1.3 0-.7-.6-1.3-1.3-1.3zm-39.7 0c-.7 0-1.3.6-1.3 1.3 0 .7.6 1.3 1.3 1.3.7 0 1.3-.6 1.3-1.3 0-.7-.6-1.3-1.3-1.3z" />
  <path d="M46.5 12.7c-.3-.1-.5 0-.7.2-.4.4-.6.9-.6 1.4 0 .2.1.4.2.5.1.1.3.2.5.2h.5l.4.5c.1.1.2.2.4.2.1 0 .2 0 .3-.1.2-.1.3-.4.1-.6.2 0 .4-.1.5-.4.1-.2.1-.5 0-.7-.4-.4-.9-.9-1.6-1.2z" />
  <path d="M63.2 17.4c-.4-1.9-3.2-2.7-5.5-3.2-1.1-.2-2.2-.4-3.3-.5-1.3-.2-2.5-.4-3.3-.6-1.5-.9-4.6-3.2-7.4-5.2-2.1-1.5-4.1-2.9-5.1-3.7-2.2-1.4-5.1-3.1-8.8-3.2H9.6C8.2 1 7.4 2.7 6.8 6.4c-.4 2.4-1.1 9-1.1 10.3 0 .3-.1.7-.3 1.2-.1.3-.3.6-.3.6l-.1.1V23l.1.3c.9 2.1 2.2 2.6 3.2 2.6h1.5c.4.8 1 1.5 1.7 2 .8.6 1.9.9 2.9.9s2.1-.3 2.9-.9c.7-.5 1.3-1.2 1.7-2h30.4c.4.8 1 1.5 1.7 2 .8.6 1.9.9 3 .9s2.1-.3 3-.9c.7-.5 1.3-1.2 1.7-2h1.4c.6 0 1-.1 1.4-.1.5-.1.8-.1 1.2-.2l.9-.2.1-3.2c0-2.4 0-2.7-.6-4.8zm-48.8 9.5c-1.8 0-3.2-1.4-3.2-3.2 0-1.8 1.4-3.2 3.2-3.2s3.2 1.4 3.2 3.2c-.1 1.8-1.5 3.2-3.2 3.2zm39.7 0c-1.8 0-3.2-1.4-3.2-3.2 0-1.8 1.4-3.2 3.2-3.2 1.8 0 3.2 1.4 3.2 3.2-.1 1.8-1.5 3.2-3.2 3.2zm8.2-5.1h-.6c-.1-.2-.3-.3-.5-.3H61c-.3 0-.5.2-.5.5v.5c0 .3.2.5.5.5h.2c.2 0 .4-.1.5-.3h.6v1.5c-.3.1-.5.1-.9.2-.3 0-.7.1-1.2.1v-1.1c0-1.7-.7-3.2-1.8-4.3-1.1-1.1-2.6-1.8-4.3-1.8-1.7 0-3.2.7-4.3 1.8-1.1 1.1-1.8 2.6-1.8 4.3v1.1H20.4v-1.1c0-1.7-.7-3.2-1.8-4.3-1.1-1.1-2.6-1.8-4.3-1.8-1.7 0-3.2.7-4.3 1.8-1.1 1.1-1.8 2.6-1.8 4.3v1.1c-.3 0-1.1 0-1.9-1.6V19c.1-.1.2-.4.3-.6.3-.4.4-.7.4-1.1 1-.4 1.8-1.2 1.9-2V9.8H7.8c.2-1.3.3-2.4.4-3.2.6-4 1.4-4.2 1.4-4.2h20.2c2.6.1 5 1 8 3 1.1.7 3 2.1 5.1 3.6 3 2.1 6 4.4 7.6 5.3l.2.1c.9.3 2.2.4 3.6.6 1 .2 2.2.3 3.2.5h.2c0 .5.1.9.3 1.1.4.4 2.6 1.6 4.2 2.5.1.9.1 1.4.1 2.7z" />
  <path d="M24.6 21.2h21.2v1.4H24.6zm7.4-5.5h1v2.1h-1zm-18.9-1.3h8.8v1h-8.8z" />
</svg>
