<svg viewBox="0 0 45 32">
  <path d="M24.5 6.3c.7-.7 1.2-1.6 1.2-2.7 0-2-1.6-3.6-3.6-3.6s-3.6 1.6-3.6 3.6c0 1.1.5 2 1.2 2.7h-.1c-1.8 0-3.2 1.5-3.2 3.2v8.3c0 1.5 1 2.8 2.4 3.1v8.3c0 1.5 1.3 2.8 2.8 2.8h.8c1.5 0 2.8-1.3 2.8-2.8v-8.3c1.4-.4 2.4-1.6 2.4-3.1V9.5c.2-1.8-1.3-3.2-3.1-3.2zM22.1 2c.9 0 1.6.7 1.6 1.6 0 .9-.7 1.6-1.6 1.6-.9 0-1.6-.7-1.6-1.6.1-.9.8-1.6 1.6-1.6zm3.6 15.8c0 .7-.6 1.2-1.2 1.2h-1.1v10.2c0 .4-.4.8-.8.8h-.8c-.4 0-.8-.4-.8-.8V19h-1.1c-.7 0-1.2-.6-1.2-1.2V9.5c0-.7.6-1.2 1.2-1.2h4.8c.7 0 1.2.5 1.2 1.2l-.2 8.3z" />
</svg>
