<svg viewBox="0 0 45 32">
  <path d="M35.5 6.3c.8-.7 1.2-1.6 1.2-2.7 0-2-1.6-3.6-3.6-3.6s-3.6 1.6-3.6 3.6c0 1.1.5 2 1.2 2.7h-.1c-1.8 0-3.2 1.5-3.2 3.2v8.3c0 1.5 1 2.7 2.3 3.1v8.3c0 1.5 1.2 2.8 2.8 2.8h.8c1.5 0 2.8-1.3 2.8-2.8v-8.3c1.4-.4 2.3-1.7 2.3-3.1V9.5c.2-1.7-1.2-3.2-2.9-3.2zM33.1 2c.9 0 1.6.7 1.6 1.6 0 .9-.7 1.6-1.6 1.6-.9 0-1.6-.7-1.6-1.6.1-.9.8-1.6 1.6-1.6zm3.4 15.8c0 .7-.5 1.2-1.2 1.2h-1.1v10.2c0 .4-.4.8-.8.8h-.8c-.4 0-.8-.4-.8-.8V19h-1.1c-.7 0-1.2-.6-1.2-1.2V9.5c0-.7.5-1.2 1.2-1.2h4.7c.6 0 1.2.5 1.1 1.2v8.3zM24.5 15h-1v-1c0-.6-.4-1-1-1s-1 .4-1 1v1h-1c-.6 0-1 .4-1 1s.4 1 1 1h1v1c0 .6.4 1 1 1s1-.4 1-1v-1h1c.6 0 1-.4 1-1s-.4-1-1-1zM14.4 6.3c.8-.7 1.3-1.6 1.3-2.7 0-2-1.6-3.6-3.6-3.6S8.6 1.6 8.6 3.6c0 1.1.5 2 1.2 2.7h-.1c-1.8 0-3.2 1.5-3.2 3.2v8.3c0 1.5 1 2.7 2.3 3.1v8.3c0 1.5 1.2 2.8 2.8 2.8h.8c1.5 0 2.8-1.3 2.8-2.8v-8.3c1.4-.4 2.3-1.7 2.3-3.1V9.5c.1-1.7-1.3-3.2-3.1-3.2zM12.1 2c.9 0 1.6.7 1.6 1.6 0 .9-.7 1.6-1.6 1.6-.9 0-1.6-.7-1.6-1.6.1-.9.8-1.6 1.6-1.6zm3.4 15.8c0 .7-.5 1.2-1.2 1.2h-1.1v10.2c0 .4-.4.8-.8.8h-.8c-.4 0-.8-.4-.8-.8V19H9.7c-.7 0-1.2-.6-1.2-1.2V9.5c0-.7.5-1.2 1.2-1.2h4.7c.6 0 1.2.5 1.1 1.2v8.3z" />
</svg>
