<svg viewBox="0 0 45 32">
  <path d="M30.5 2.1c-.5-.2-1.1-.1-1.4.4l-2.4 4.3c-.5-.3-1.1-.5-1.7-.5h-.1c.8-.7 1.2-1.6 1.2-2.7 0-2-1.6-3.6-3.6-3.6s-3.6 1.6-3.6 3.6c0 1.1.5 2 1.2 2.7H20c-1.8 0-3.2 1.5-3.2 3.2v8.3c0 1.3.8 2.5 2 3l-4.9 8.8c-.3.5-.1 1.1.4 1.4.5.3 1.1.1 1.4-.4l3.5-6.3v5c0 1.5 1.3 2.8 2.8 2.8h1c1.5 0 2.8-1.3 2.8-2.8V21c1.4-.4 2.4-1.6 2.4-3.1V9.5c0-.3 0-.7-.1-1l2.8-5.1c.2-.4.1-1-.4-1.3zM22.6 2c.9 0 1.6.7 1.6 1.6 0 .9-.7 1.6-1.6 1.6-.9 0-1.6-.7-1.6-1.6.1-.9.8-1.6 1.6-1.6zM19 17.8V9.5c0-.7.6-1.2 1.2-1.2H25c.3 0 .6.1.8.3L20 19c-.6-.2-1-.6-1-1.2zm7.2 0c0 .7-.6 1.2-1.2 1.2h-1.1v10.2c0 .4-.4.8-.8.8h-.8c-.4 0-.8-.4-.8-.8v-8.6l4.8-8.6-.1 5.8z" />
</svg>
