<svg viewBox="0 0 30 30">
  <path d="M15.8 24.2c1-.8 2-1.7 3-2.7 2.7-2.8 4.2-5.7 4.2-8.4 0-4.4-3.6-8-8-8s-8 3.6-8 8c0 2.8 1.6 5.6 4.2 8.4.9 1 2 1.9 3 2.7.3.2.5.4.8.6.2-.2.5-.4.8-.6zm4.4-1.4c-1 1.1-2.1 2.1-3.2 2.9-.4.3-.7.6-1.1.8-.2.1-.3.2-.4.3-.3.2-.8.2-1.1 0-.1-.1-.2-.2-.4-.3-.3-.2-.7-.5-1.1-.8-1.1-.9-2.2-1.8-3.2-2.9C6.8 19.7 5 16.4 5 13 5 7.5 9.5 3 15 3s10 4.5 10 10c0 3.4-1.8 6.7-4.8 9.8zM15 17c-2.2 0-4-1.8-4-4s1.8-4 4-4 4 1.8 4 4-1.8 4-4 4zm0-2c1.1 0 2-.9 2-2s-.9-2-2-2-2 .9-2 2 .9 2 2 2z" />
</svg>
