<svg viewBox="0 0 68 30">
  <path d="M53.1 12.8c.2-.2.4-.2.6-.1.6.2 2.3 2.8.8 2.8h-1.4c-.2 0-.3-.1-.4-.2-.1-.1-.2-.3-.2-.4.1-.5.3-1.7.6-2.1zm-12-6.1v5.5c0 .7-.6 1.2-1.3 1.2H27.4c-.7 0-1.3-.6-1.3-1.2V6.7c0-.7.6-1.2 1.3-1.2h12.4c.7 0 1.3.5 1.3 1.2zm1.5 9.6v-.8h2.9v.8h-2.9zM47.9 7c1 .8 2 1.8 2.8 2.5.8.8 1.8 1.7 2.8 2.5-.3 0-.6.1-.8.4-.5.5-.7 1.8-.7 2.5 0 .2 0 .5.2.7H51c-2.6 0-7.6-2-7.6-2V6.7H47c.4 0 .6.1.9.3zM38 15.6v-.8h2.9v.8H38zm23.8 9.1h.3c1.2 0 2.6 0 3-.1h.2c.3-.1.5-.3.5-.6v-2.1c0-.3-.1-.5-.4-.6l-.4-.2v-2.3c-1.5-.8-3.5-1.9-3.8-2.3-.1-.1-.2-.9-.2-1.7-1.8-.8-3.8-1.5-4.8-1.8l-.2-.1c-1.3-.8-3.3-2.6-5.2-4.3-1.6-1.5-3.3-3-4.3-3.7-2.7-1.7-4.8-2.5-7.1-2.6H4.5s-.7.2-1.2 3.7c0 .4-.1 1.3-.2 2.4h1.5v7.5c0 .7-.8 1.4-1.7 1.8v.2c0 .4-.1.9-.4 1.5-.1.2-.2.4-.3.5v3.4c.1.1.3.4.5.6.6.5 1.4.8 2.4.7h3.7v-.1c0-1.5.6-2.8 1.6-3.8s2.3-1.6 3.8-1.6 2.8.6 3.8 1.6 1.6 2.3 1.6 3.8v.1h31.5v-.1c0-1.5.6-2.8 1.6-3.8s2.3-1.6 3.8-1.6 2.8.6 3.8 1.6 1.6 2.3 1.6 3.8v.2h-.1zm0 1.2h-1c-.2.8-.6 1.4-1.2 2-.8.8-2 1.3-3.2 1.3-1.3 0-2.4-.5-3.2-1.3-.5-.5-.9-1.2-1.2-2H18.6c-.2.8-.6 1.4-1.2 2-.8.8-2 1.3-3.2 1.3s-2.4-.5-3.2-1.3c-.5-.5-.9-1.2-1.2-2H5c-1.5 0-2.5-.6-3-1.1-.6-.6-.9-1.1-.9-1.2l-.1-.1v-3.9l.1-.2s.1-.2.3-.5c.2-.4.3-.8.3-1.1 0-.3 0-1.1.1-2.1.1-3.1.2-8.4.4-10.1C2.6 2.5 3.3 1 4.6 1h34.9c3.2.2 5.8 1.6 7.7 2.8 1.1.8 2.8 2.2 4.5 3.8 1.9 1.7 3.8 3.4 5 4.2 1 .3 8.8 2.9 9.2 4.6.5 1.8.5 2.1.5 3.9.5.4.8.9.8 1.6V24c0 .9-.7 1.7-1.6 1.8h-.3c-.6.1-2.2.1-3.2.1h-.3zm-5.4-4.1c-1.6 0-3 1.3-3 2.9s1.3 2.9 3 2.9 3-1.3 3-2.9-1.3-2.9-3-2.9zm0 1.8c-.6 0-1.1.5-1.1 1.1 0 .6.5 1.1 1.1 1.1s1.1-.5 1.1-1.1c.1-.6-.4-1.1-1.1-1.1zm-42.2-1.8c-1.6 0-3 1.3-3 2.9s1.3 2.9 3 2.9c1.6 0 3-1.3 3-2.9s-1.3-2.9-3-2.9zm0 1.8c-.6 0-1.1.5-1.1 1.1 0 .6.5 1.1 1.1 1.1.6 0 1.1-.5 1.1-1.1.1-.6-.4-1.1-1.1-1.1z" />
</svg>
