<svg xmlns="http://www.w3.org/2000/svg" viewBox="0 0 68 30">
  <path d="M16.3 23.5c-.6 0-1 .5-1 1 0 .6.5 1 1 1 .6 0 1-.5 1-1s-.4-1-1-1z"/>
  <path d="M64.9 20.5c0-1.7 0-2-.4-3.6S57 13 56.1 12.7c-1.1-.7-2.8-2.3-4.5-3.8-.6-.5-1.2-1-1.7-1.5-2-1.7-4.9-2.7-8.8-2.8V0H4v20.4h4.5v4.4h1.6V23h1.2c0 .4-.1.8-.1 1.3v2.9h.8v-2.5h.2c0 1.1.5 2.1 1.2 2.8.7.7 1.8 1.2 2.9 1.2 1.1 0 2.2-.5 2.9-1.2.7-.7 1.1-1.6 1.2-2.6l8-.5 1.6.6h9.8v.8h12c.2.7.6 1.3 1.1 1.8.7.7 1.8 1.2 2.9 1.2 1.1 0 2.2-.5 2.9-1.2.5-.5.9-1.1 1.1-1.8H61c1 0 2.4 0 2.9-.1h.3c.8-.1 1.4-.8 1.4-1.7v-2c0-.7-.3-1.2-.7-1.5zm-48.6 6.6c-1.4 0-2.5-1.1-2.5-2.5s1.1-2.5 2.5-2.5 2.5 1.1 2.5 2.5-1.1 2.5-2.5 2.5zm5.1-3.4c0-.2 0-.4-.1-.6h3.6l.9.4-4.4.2zm18.4-4.5H5.1V1.1h34.7v18.1zm16.1 7.9c-1.4 0-2.5-1.1-2.5-2.5s1.1-2.5 2.5-2.5 2.5 1.1 2.5 2.5-1.1 2.5-2.5 2.5zm8.5-3.2c0 .3-.2.5-.5.6h-.2c-.4.1-1.7.1-2.7.1h-.3v-.1c0-1.3-.6-2.6-1.4-3.5-.9-.9-2.1-1.4-3.4-1.4-1.3 0-2.6.6-3.5 1.4-.9.9-1.4 2.1-1.4 3.5v.1H41V5.7c3.6.1 6.3.9 8 2.5.5.5 1.1 1 1.7 1.5 1.8 1.6 3.6 3.3 4.8 4l.1.1c.9.3 2.8.9 4.4 1.6 0 .8 0 1.5.2 1.6.3.3 2.2 1.3 3.5 2.1v2.2l.4.2c.2.1.4.3.4.5l-.1 1.9z"/>
  <path d="M56 23.5c-.6 0-1 .5-1 1 0 .6.5 1 1 1 .6 0 1-.5 1-1 .1-.5-.4-1-1-1zm-3.6-10.3c.2-.2.5-.3.7-.3-.9-.8-1.8-1.6-2.6-2.3-.7-.7-1.6-1.6-2.5-2.4-.2-.2-.5-.2-.8-.2h-3.4v6.3s4.6 1.9 7 1.9h1c-.1-.2-.2-.4-.1-.6 0-.7.2-2 .7-2.4zm-9.2 2.9h2.6v.8h-2.6z"/>
  <path d="M53.3 13.5c-.2-.1-.4 0-.6.1-.3.3-.5 1.5-.5 1.9 0 .2 0 .3.2.4.1.1.2.2.4.2h1.3c1.3 0-.3-2.4-.8-2.6z"/>
</svg>
