<svg xmlns="http://www.w3.org/2000/svg" viewBox="0 0 30 30">
  <path d="M15 4C8.9 4 4 8.9 4 15s4.9 11 11 11 11-4.9 11-11S21.1 4 15 4zm0 20c-5 0-9-4-9-9s4-9 9-9 9 4 9 9-4 9-9 9z"/>
  <path d="M14.9 18.7c-.3 0-.6.1-.9.3-.2.2-.4.5-.4.8 0 .4.1.7.4.9.2.2.5.3.9.3.3 0 .6-.1.8-.3.2-.2.4-.5.4-.9 0-.3-.1-.6-.3-.8-.3-.2-.6-.3-.9-.3zm2.2-9.3c-.6-.3-1.3-.4-2-.4-.8 0-1.6.2-2.2.5-.6.3-1.1.8-1.4 1.3-.3.5-.5 1-.5 1.5 0 .2.1.5.3.7.2.2.5.3.8.3.5 0 .9-.3 1-.9.2-.6.4-1 .7-1.3.3-.3.7-.4 1.3-.4.5 0 .9.1 1.2.4.3.3.5.7.5 1.1 0 .2-.1.4-.2.6-.1.2-.2.4-.4.5l-.7.7c-.4.3-.7.6-.9.9-.2.2-.4.5-.6.9s-.2.7-.2 1.2c0 .4.1.6.3.8.2.2.4.3.7.3.5 0 .9-.3 1-.8.1-.3.1-.4.1-.5 0-.1.1-.2.1-.3s.1-.2.2-.3l.4-.4c.7-.6 1.1-1 1.4-1.3.3-.2.5-.5.7-.9s.3-.7.3-1.2c0-.6-.2-1.1-.5-1.6-.3-.8-.8-1.1-1.4-1.4z"/>
</svg>
